<svg xmlns="http://www.w3.org/2000/svg" version="1.1" xmlns:xlink="http://www.w3.org/1999/xlink" xmlns:svgjs="http://svgjs.com/svgjs" width="1440" height="560" preserveAspectRatio="none" viewBox="0 0 1440 560"><g mask="url(&quot;#SvgjsMask1000&quot;)" fill="none"><rect width="1440" height="560" x="0" y="0" fill="#1e3266"></rect><path d="M1512 560L0 560 L0 317.07Q83.56 280.63, 120 364.2Q151.27 275.47, 240 306.74Q266.23 260.97, 312 287.2Q364.36 267.56, 384 319.92Q448.65 312.57, 456 377.22Q495.72 296.94, 576 336.66Q593.83 282.5, 648 300.33Q731.64 263.98, 768 347.62Q820.99 280.61, 888 333.6Q936.37 261.97, 1008 310.34Q1062.39 292.74, 1080 347.13Q1127.14 274.27, 1200 321.41Q1266.01 267.42, 1320 333.42Q1340.76 282.18, 1392 302.94Q1476.76 267.69, 1512 352.45z" fill="#182f5d"></path><path d="M1512 560L0 560 L0 398.91Q17.92 344.83, 72 362.75Q114.62 333.37, 144 375.99Q228.6 340.59, 264 425.18Q315.22 356.4, 384 407.62Q413.78 365.4, 456 395.19Q510.77 329.96, 576 384.72Q629.93 366.65, 648 420.58Q674.66 375.24, 720 401.89Q802.69 364.58, 840 447.28Q845.69 380.97, 912 386.66Q941.1 343.76, 984 372.86Q1077.94 346.81, 1104 440.75Q1152.28 369.03, 1224 417.31Q1265.08 386.38, 1296 427.46Q1299.45 358.91, 1368 362.36Q1422.69 345.05, 1440 399.74Q1481.53 369.27, 1512 410.8z" fill="#25467d"></path><path d="M1560 560L0 560 L0 428.55Q97.98 406.53, 120 504.52Q149.52 462.04, 192 491.56Q221.2 448.76, 264 477.97Q285.98 427.95, 336 449.93Q382.61 376.54, 456 423.15Q516.34 411.49, 528 471.83Q600.03 423.86, 648 495.88Q689.84 465.72, 720 507.56Q731.73 447.29, 792 459.02Q815.97 410.99, 864 434.96Q892.6 391.56, 936 420.16Q1010.74 374.9, 1056 449.64Q1125.84 399.48, 1176 469.32Q1244.95 418.27, 1296 487.22Q1305.82 425.04, 1368 434.86Q1409.77 404.63, 1440 446.4Q1528.91 415.31, 1560 504.23z" fill="#356cb1"></path><path d="M1464 560L0 560 L0 518.87Q43.88 490.75, 72 534.64Q124.57 515.21, 144 567.79Q213.09 516.88, 264 585.97Q297.69 499.66, 384 533.36Q452.86 482.22, 504 551.07Q554.23 529.3, 576 579.52Q629.63 513.14, 696 566.77Q704.04 502.81, 768 510.85Q811.49 482.34, 840 525.83Q884.77 498.61, 912 543.38Q933.91 493.29, 984 515.19Q1035.79 446.98, 1104 498.77Q1189.21 463.98, 1224 549.19Q1266.33 471.52, 1344 513.84Q1440.07 489.91, 1464 585.98z" fill="white"></path></g><defs><mask id="SvgjsMask1000"><rect width="1440" height="560" fill="#ffffff"></rect></mask></defs></svg>