<svg xmlns="http://www.w3.org/2000/svg" version="1.1" xmlns:xlink="http://www.w3.org/1999/xlink" xmlns:svgjs="http://svgjs.com/svgjs" width="1440" height="560" preserveAspectRatio="none" viewBox="0 0 1440 560"><g mask="url(&quot;#SvgjsMask1001&quot;)" fill="none"><rect width="1440" height="560" x="0" y="0" fill="#1e3266"></rect><path d="M1560 560L0 560 L0 338.34Q62.28 328.62, 72 390.9Q139.49 338.38, 192 405.87Q194.38 288.25, 312 290.64Q344.74 251.38, 384 284.12Q465.68 245.8, 504 327.48Q574.37 277.85, 624 348.21Q680.02 332.24, 696 388.26Q765.05 337.31, 816 406.36Q822.65 293.01, 936 299.67Q1004.05 247.73, 1056 315.78Q1113.89 301.67, 1128 359.56Q1178.93 338.5, 1200 389.43Q1222.24 291.67, 1320 313.91Q1387.23 261.14, 1440 328.38Q1507.99 276.37, 1560 344.36z" fill="#182f5d"></path><path d="M1464 560L0 560 L0 419.4Q63.75 363.15, 120 426.9Q135.83 370.73, 192 386.55Q241.54 364.09, 264 413.62Q323.29 400.91, 336 460.2Q339.07 391.27, 408 394.35Q460.48 326.83, 528 379.31Q593.68 373, 600 438.68Q678.5 397.19, 720 475.69Q724.03 407.72, 792 411.74Q811.77 359.51, 864 379.28Q910.14 353.42, 936 399.57Q987.55 379.13, 1008 430.68Q1021.72 372.4, 1080 386.12Q1156.16 342.28, 1200 418.44Q1301.19 399.63, 1320 500.82Q1337.92 446.74, 1392 464.66Q1382.65 383.32, 1464 373.97z" fill="#25467d"></path><path d="M1488 560L0 560 L0 536.91Q17.35 482.26, 72 499.61Q119.86 427.47, 192 475.33Q269.92 433.25, 312 511.17Q364.58 491.75, 384 544.34Q445.97 534.31, 456 596.27Q499.41 519.68, 576 563.09Q606.46 473.55, 696 504Q741.15 429.15, 816 474.3Q859.2 445.5, 888 488.7Q955.87 436.57, 1008 504.44Q1072.91 497.35, 1080 562.26Q1099.91 462.17, 1200 482.08Q1243.89 453.97, 1272 497.86Q1326.63 480.5, 1344 535.13Q1394.64 513.77, 1416 564.41Q1424.26 500.66, 1488 508.92z" fill="#356cb1"></path></g><defs><mask id="SvgjsMask1001"><rect width="1440" height="560" fill="#ffffff"></rect></mask></defs></svg>